<mxfile host="app.diagrams.net" agent="Mozilla/5.0 (Windows NT 10.0; Win64; x64) AppleWebKit/537.36 (KHTML, like Gecko) Chrome/130.0.0.0 Safari/537.36" version="24.8.4">
  <diagram name="PÃ¡gina-1" id="Aixr4n7aSNX-xHtRLBiQ">
    <mxGraphModel dx="1157" dy="619" grid="1" gridSize="10" guides="1" tooltips="1" connect="1" arrows="1" fold="1" page="1" pageScale="1" pageWidth="827" pageHeight="1169" math="0" shadow="0">
      <root>
        <mxCell id="0" />
        <mxCell id="1" parent="0" />
        <mxCell id="V8JjJSnd1Wa41GPSRQHj-9" value="" style="rounded=0;whiteSpace=wrap;html=1;" vertex="1" parent="1">
          <mxGeometry x="70" y="150" width="190" height="140" as="geometry" />
        </mxCell>
        <mxCell id="V8JjJSnd1Wa41GPSRQHj-3" value="" style="rounded=0;whiteSpace=wrap;html=1;" vertex="1" parent="1">
          <mxGeometry x="341" y="150" width="419" height="440" as="geometry" />
        </mxCell>
        <mxCell id="_nGTOd4WAb2KQErqASgV-1" value="API Movies" style="ellipse;shape=cloud;whiteSpace=wrap;html=1;" parent="1" vertex="1">
          <mxGeometry x="150" y="360" width="120" height="80" as="geometry" />
        </mxCell>
        <mxCell id="V8JjJSnd1Wa41GPSRQHj-2" value="Microservice" style="rounded=0;whiteSpace=wrap;html=1;" vertex="1" parent="1">
          <mxGeometry x="341" y="110" width="419" height="40" as="geometry" />
        </mxCell>
        <mxCell id="V8JjJSnd1Wa41GPSRQHj-6" value="Insomnia / App" style="rounded=0;whiteSpace=wrap;html=1;" vertex="1" parent="1">
          <mxGeometry x="70" y="110" width="190" height="40" as="geometry" />
        </mxCell>
        <mxCell id="V8JjJSnd1Wa41GPSRQHj-8" value="" style="endArrow=classic;html=1;rounded=0;entryX=0;entryY=0.5;entryDx=0;entryDy=0;exitX=1;exitY=0.5;exitDx=0;exitDy=0;" edge="1" parent="1" source="V8JjJSnd1Wa41GPSRQHj-11" target="V8JjJSnd1Wa41GPSRQHj-20">
          <mxGeometry width="50" height="50" relative="1" as="geometry">
            <mxPoint x="250" y="200" as="sourcePoint" />
            <mxPoint x="440" y="220" as="targetPoint" />
          </mxGeometry>
        </mxCell>
        <mxCell id="V8JjJSnd1Wa41GPSRQHj-13" value="HTTP&lt;div&gt;GET&lt;/div&gt;" style="edgeLabel;html=1;align=center;verticalAlign=middle;resizable=0;points=[];" vertex="1" connectable="0" parent="V8JjJSnd1Wa41GPSRQHj-8">
          <mxGeometry x="0.0118" y="-1" relative="1" as="geometry">
            <mxPoint as="offset" />
          </mxGeometry>
        </mxCell>
        <mxCell id="V8JjJSnd1Wa41GPSRQHj-11" value="&lt;div&gt;&lt;span style=&quot;text-align: left;&quot;&gt;Call endpoint&lt;/span&gt;&lt;/div&gt;&lt;span style=&quot;text-align: left;&quot;&gt;/api/directors?threshold=X&lt;/span&gt;" style="rounded=1;whiteSpace=wrap;html=1;" vertex="1" parent="1">
          <mxGeometry x="90" y="170" width="160" height="70" as="geometry" />
        </mxCell>
        <mxCell id="V8JjJSnd1Wa41GPSRQHj-16" value="" style="endArrow=classic;startArrow=classic;html=1;rounded=0;exitX=0.013;exitY=0.304;exitDx=0;exitDy=0;entryX=0.875;entryY=0.5;entryDx=0;entryDy=0;entryPerimeter=0;exitPerimeter=0;" edge="1" parent="1" source="V8JjJSnd1Wa41GPSRQHj-37" target="_nGTOd4WAb2KQErqASgV-1">
          <mxGeometry width="50" height="50" relative="1" as="geometry">
            <mxPoint x="372.5" y="400" as="sourcePoint" />
            <mxPoint x="280" y="400" as="targetPoint" />
          </mxGeometry>
        </mxCell>
        <mxCell id="V8JjJSnd1Wa41GPSRQHj-17" value="HTTP&lt;div&gt;GET&lt;/div&gt;" style="edgeLabel;html=1;align=center;verticalAlign=middle;resizable=0;points=[];" vertex="1" connectable="0" parent="V8JjJSnd1Wa41GPSRQHj-16">
          <mxGeometry x="0.2048" y="-1" relative="1" as="geometry">
            <mxPoint as="offset" />
          </mxGeometry>
        </mxCell>
        <mxCell id="V8JjJSnd1Wa41GPSRQHj-18" value="DB" style="shape=cylinder3;whiteSpace=wrap;html=1;boundedLbl=1;backgroundOutline=1;size=15;" vertex="1" parent="1">
          <mxGeometry x="800" y="160" width="60" height="80" as="geometry" />
        </mxCell>
        <mxCell id="V8JjJSnd1Wa41GPSRQHj-20" value="Look for data movies&lt;div&gt;in database / cache&lt;/div&gt;" style="rounded=1;whiteSpace=wrap;html=1;" vertex="1" parent="1">
          <mxGeometry x="397.5" y="170" width="120" height="60" as="geometry" />
        </mxCell>
        <mxCell id="V8JjJSnd1Wa41GPSRQHj-24" value="Exists" style="rhombus;whiteSpace=wrap;html=1;" vertex="1" parent="1">
          <mxGeometry x="417.5" y="270" width="80" height="50" as="geometry" />
        </mxCell>
        <mxCell id="V8JjJSnd1Wa41GPSRQHj-25" value="" style="endArrow=classic;html=1;rounded=0;entryX=0.5;entryY=0;entryDx=0;entryDy=0;exitX=0.5;exitY=1;exitDx=0;exitDy=0;" edge="1" parent="1" source="V8JjJSnd1Wa41GPSRQHj-20" target="V8JjJSnd1Wa41GPSRQHj-24">
          <mxGeometry width="50" height="50" relative="1" as="geometry">
            <mxPoint x="317" y="350" as="sourcePoint" />
            <mxPoint x="367" y="300" as="targetPoint" />
          </mxGeometry>
        </mxCell>
        <mxCell id="V8JjJSnd1Wa41GPSRQHj-33" value="" style="endArrow=classic;html=1;rounded=0;exitX=0.5;exitY=1;exitDx=0;exitDy=0;entryX=0.5;entryY=0;entryDx=0;entryDy=0;" edge="1" parent="1" source="V8JjJSnd1Wa41GPSRQHj-24" target="V8JjJSnd1Wa41GPSRQHj-37">
          <mxGeometry width="50" height="50" relative="1" as="geometry">
            <mxPoint x="508" y="305" as="sourcePoint" />
            <mxPoint x="457.5" y="360" as="targetPoint" />
          </mxGeometry>
        </mxCell>
        <mxCell id="V8JjJSnd1Wa41GPSRQHj-34" value="No" style="edgeLabel;html=1;align=center;verticalAlign=middle;resizable=0;points=[];" vertex="1" connectable="0" parent="V8JjJSnd1Wa41GPSRQHj-33">
          <mxGeometry x="-0.5769" y="1" relative="1" as="geometry">
            <mxPoint x="9" y="5" as="offset" />
          </mxGeometry>
        </mxCell>
        <mxCell id="V8JjJSnd1Wa41GPSRQHj-36" value="Find by directors&amp;nbsp;with more than threshold movies&lt;span style=&quot;color: rgba(0, 0, 0, 0); font-family: monospace; font-size: 0px; text-align: start; text-wrap-mode: nowrap;&quot;&gt;%3CmxGraphModel%3E%3Croot%3E%3CmxCell%20id%3D%220%22%2F%3E%3CmxCell%20id%3D%221%22%20parent%3D%220%22%2F%3E%3CmxCell%20id%3D%222%22%20value%3D%221%22%20style%3D%22ellipse%3BwhiteSpace%3Dwrap%3Bhtml%3D1%3Baspect%3Dfixed%3B%22%20vertex%3D%221%22%20parent%3D%221%22%3E%3CmxGeometry%20x%3D%22270%22%20y%3D%22440%22%20width%3D%2230%22%20height%3D%2230%22%20as%3D%22geometry%22%2F%3E%3C%2FmxCell%3E%3C%2Froot%3E%3C%2FmxGraphModel%3E&lt;/span&gt;" style="rounded=1;whiteSpace=wrap;html=1;" vertex="1" parent="1">
          <mxGeometry x="620" y="380" width="110" height="80" as="geometry" />
        </mxCell>
        <mxCell id="V8JjJSnd1Wa41GPSRQHj-37" value="Call REST API until get all pages&lt;div&gt;&lt;span style=&quot;text-align: left;&quot;&gt;http://134.122.4.189:3000/?page=&amp;lt;pageNumber&amp;gt;&lt;/span&gt;&lt;/div&gt;" style="rounded=1;whiteSpace=wrap;html=1;" vertex="1" parent="1">
          <mxGeometry x="372.5" y="370" width="170" height="100" as="geometry" />
        </mxCell>
        <mxCell id="V8JjJSnd1Wa41GPSRQHj-40" value="" style="endArrow=classic;startArrow=classic;html=1;rounded=0;exitX=1;exitY=0.5;exitDx=0;exitDy=0;entryX=0;entryY=0.5;entryDx=0;entryDy=0;entryPerimeter=0;" edge="1" parent="1" source="V8JjJSnd1Wa41GPSRQHj-20" target="V8JjJSnd1Wa41GPSRQHj-18">
          <mxGeometry width="50" height="50" relative="1" as="geometry">
            <mxPoint x="740" y="225" as="sourcePoint" />
            <mxPoint x="790" y="175" as="targetPoint" />
          </mxGeometry>
        </mxCell>
        <mxCell id="V8JjJSnd1Wa41GPSRQHj-44" value="SELECT" style="edgeLabel;html=1;align=center;verticalAlign=middle;resizable=0;points=[];" vertex="1" connectable="0" parent="V8JjJSnd1Wa41GPSRQHj-40">
          <mxGeometry x="0.0235" y="-1" relative="1" as="geometry">
            <mxPoint as="offset" />
          </mxGeometry>
        </mxCell>
        <mxCell id="V8JjJSnd1Wa41GPSRQHj-41" value="" style="endArrow=classic;html=1;rounded=0;exitX=1;exitY=0.5;exitDx=0;exitDy=0;entryX=0;entryY=0.5;entryDx=0;entryDy=0;" edge="1" parent="1" source="V8JjJSnd1Wa41GPSRQHj-37" target="V8JjJSnd1Wa41GPSRQHj-42">
          <mxGeometry width="50" height="50" relative="1" as="geometry">
            <mxPoint x="420" y="400" as="sourcePoint" />
            <mxPoint x="260" y="460" as="targetPoint" />
          </mxGeometry>
        </mxCell>
        <mxCell id="V8JjJSnd1Wa41GPSRQHj-42" value="1" style="ellipse;whiteSpace=wrap;html=1;aspect=fixed;" vertex="1" parent="1">
          <mxGeometry x="570" y="405" width="30" height="30" as="geometry" />
        </mxCell>
        <mxCell id="V8JjJSnd1Wa41GPSRQHj-43" value="1" style="ellipse;whiteSpace=wrap;html=1;aspect=fixed;" vertex="1" parent="1">
          <mxGeometry x="815" y="300" width="30" height="30" as="geometry" />
        </mxCell>
        <mxCell id="V8JjJSnd1Wa41GPSRQHj-45" value="" style="endArrow=classic;html=1;rounded=0;exitX=0.5;exitY=0;exitDx=0;exitDy=0;entryX=0.5;entryY=1;entryDx=0;entryDy=0;entryPerimeter=0;" edge="1" parent="1" source="V8JjJSnd1Wa41GPSRQHj-43" target="V8JjJSnd1Wa41GPSRQHj-18">
          <mxGeometry width="50" height="50" relative="1" as="geometry">
            <mxPoint x="817" y="290" as="sourcePoint" />
            <mxPoint x="867" y="240" as="targetPoint" />
          </mxGeometry>
        </mxCell>
        <mxCell id="V8JjJSnd1Wa41GPSRQHj-46" value="INSERT" style="edgeLabel;html=1;align=center;verticalAlign=middle;resizable=0;points=[];" vertex="1" connectable="0" parent="V8JjJSnd1Wa41GPSRQHj-45">
          <mxGeometry x="-0.1537" y="1" relative="1" as="geometry">
            <mxPoint as="offset" />
          </mxGeometry>
        </mxCell>
        <mxCell id="V8JjJSnd1Wa41GPSRQHj-49" value="" style="endArrow=classic;html=1;rounded=0;exitX=1;exitY=0.5;exitDx=0;exitDy=0;entryX=0.5;entryY=0;entryDx=0;entryDy=0;" edge="1" parent="1" source="V8JjJSnd1Wa41GPSRQHj-24" target="V8JjJSnd1Wa41GPSRQHj-36">
          <mxGeometry width="50" height="50" relative="1" as="geometry">
            <mxPoint x="570" y="330" as="sourcePoint" />
            <mxPoint x="620" y="280" as="targetPoint" />
            <Array as="points">
              <mxPoint x="675" y="295" />
            </Array>
          </mxGeometry>
        </mxCell>
        <mxCell id="V8JjJSnd1Wa41GPSRQHj-50" value="Yes" style="edgeLabel;html=1;align=center;verticalAlign=middle;resizable=0;points=[];" vertex="1" connectable="0" parent="V8JjJSnd1Wa41GPSRQHj-49">
          <mxGeometry x="-0.2591" y="1" relative="1" as="geometry">
            <mxPoint as="offset" />
          </mxGeometry>
        </mxCell>
        <mxCell id="V8JjJSnd1Wa41GPSRQHj-51" value="Order by names" style="rounded=1;whiteSpace=wrap;html=1;" vertex="1" parent="1">
          <mxGeometry x="620" y="500" width="110" height="60" as="geometry" />
        </mxCell>
        <mxCell id="V8JjJSnd1Wa41GPSRQHj-52" value="" style="endArrow=classic;html=1;rounded=0;exitX=0.5;exitY=1;exitDx=0;exitDy=0;entryX=0.5;entryY=0;entryDx=0;entryDy=0;" edge="1" parent="1" source="V8JjJSnd1Wa41GPSRQHj-36" target="V8JjJSnd1Wa41GPSRQHj-51">
          <mxGeometry width="50" height="50" relative="1" as="geometry">
            <mxPoint x="660" y="490" as="sourcePoint" />
            <mxPoint x="727" y="490" as="targetPoint" />
          </mxGeometry>
        </mxCell>
        <mxCell id="V8JjJSnd1Wa41GPSRQHj-54" value="" style="endArrow=classic;html=1;rounded=0;exitX=0;exitY=0.5;exitDx=0;exitDy=0;entryX=0.112;entryY=1.002;entryDx=0;entryDy=0;entryPerimeter=0;" edge="1" parent="1" source="V8JjJSnd1Wa41GPSRQHj-51" target="V8JjJSnd1Wa41GPSRQHj-9">
          <mxGeometry width="50" height="50" relative="1" as="geometry">
            <mxPoint x="470" y="550" as="sourcePoint" />
            <mxPoint x="115.519970703125" y="540" as="targetPoint" />
            <Array as="points">
              <mxPoint x="91" y="530" />
            </Array>
          </mxGeometry>
        </mxCell>
        <mxCell id="V8JjJSnd1Wa41GPSRQHj-56" value="response JSON" style="edgeLabel;html=1;align=center;verticalAlign=middle;resizable=0;points=[];" vertex="1" connectable="0" parent="V8JjJSnd1Wa41GPSRQHj-54">
          <mxGeometry x="-0.4778" y="2" relative="1" as="geometry">
            <mxPoint as="offset" />
          </mxGeometry>
        </mxCell>
      </root>
    </mxGraphModel>
  </diagram>
</mxfile>
